# xmcd
# Copyright (C) 1995-1998 Ti Kan
#
# Track frame offsets:
#       150
#       18122
#       29400
#
# Disc length: 669 seconds
#
# Revision: 0
# Processed by: cddbd v1.5.2PL0 Copyright (c) Steve Scherf et al.
# Submitted via: CD-Transfer v1.0
#
DISCID=17029b03
DTITLE=Andrea Mcewan - Single
DYEAR=08
DGENRE=
TTITLE0=Candle In A Chatroom (Radio Edit)
TTITLE1=Black Socks In The Wash (Radio Edit)
TTITLE2=Fast Train (Radio Edit)
EXTD=
EXTT0=
EXTT1=
EXTT2=
PLAYORDER=
